<svg width="70" height="70" viewBox="0 0 70 70" fill="none" xmlns="http://www.w3.org/2000/svg">
<mask id="mask0_2179_5946" style="mask-type:alpha" maskUnits="userSpaceOnUse" x="2" y="3" width="56" height="66">
<path d="M10.7003 49.741C0.0639102 39.1046 0.063919 21.8595 10.7003 11.2231C21.3368 0.58671 38.5818 0.586708 49.2182 11.2231C59.8546 21.8595 59.8546 39.1046 49.2182 49.741L29.9593 68.9999L10.7003 49.741Z" fill="#C4C4C4"/>
</mask>
<g mask="url(#mask0_2179_5946)">
<path d="M40.3108 28.1401C40.6583 28.4946 40.853 28.9713 40.853 29.4678C40.853 29.9642 40.6583 30.4409 40.3108 30.7955L37.2761 33.8302C36.9215 34.1777 36.4448 34.3724 35.9484 34.3724C35.4519 34.3724 34.9752 34.1777 34.6207 33.8302L27.4701 26.6796C26.5163 28.7872 26.2276 31.1354 26.6422 33.4113C27.0569 35.6872 28.1553 37.7827 29.7911 39.4185C31.4269 41.0543 33.5224 42.1527 35.7983 42.5674C38.0741 42.982 40.4224 42.6933 42.53 41.7395L55.6363 54.8458C56.3908 55.6004 57.4142 56.0243 58.4813 56.0243C59.5485 56.0243 60.5719 55.6004 61.3264 54.8458C62.081 54.0912 62.5049 53.0678 62.5049 52.0007C62.5049 50.9336 62.081 49.9102 61.3264 49.1557L48.2201 36.0494C49.1739 33.9418 49.4626 31.5935 49.048 29.3177C48.6333 27.0418 47.5349 24.9463 45.8991 23.3105C44.2633 21.6747 42.1678 20.5763 39.8919 20.1616C37.616 19.747 35.2678 20.0357 33.1602 20.9895L40.2918 28.1211L40.3108 28.1401Z" stroke="white" stroke-width="3" stroke-linecap="round"/>
</g>
<path d="M17.0645 46.3887C7.52582 36.8501 7.52583 21.3848 17.0645 11.8461C26.6032 2.30742 42.0685 2.30742 51.6072 11.8461C61.1459 21.3848 61.1458 36.8501 51.6072 46.3888L34.3358 63.6601L17.0645 46.3887Z" stroke="white" stroke-width="3" stroke-linecap="round"/>
</svg>
