<svg width="24" height="24" viewBox="0 0 24 24" fill="none" xmlns="http://www.w3.org/2000/svg">
<path d="M6 23C5.46957 23 4.96086 22.7893 4.58579 22.4142C4.21071 22.0391 4 21.5304 4 21C4 20.4696 4.21071 19.9609 4.58579 19.5858C4.96086 19.2107 5.46957 19 6 19C6.53043 19 7.03914 19.2107 7.41421 19.5858C7.78929 19.9609 8 20.4696 8 21C8 21.5304 7.78929 22.0391 7.41421 22.4142C7.03914 22.7893 6.53043 23 6 23ZM18 23C17.4696 23 16.9609 22.7893 16.5858 22.4142C16.2107 22.0391 16 21.5304 16 21C16 20.4696 16.2107 19.9609 16.5858 19.5858C16.9609 19.2107 17.4696 19 18 19C18.5304 19 19.0391 19.2107 19.4142 19.5858C19.7893 19.9609 20 20.4696 20 21C20 21.5304 19.7893 22.0391 19.4142 22.4142C19.0391 22.7893 18.5304 23 18 23Z" fill="white"/>
<path d="M2 3H5V16H19L22 6H8" stroke="white" stroke-width="2"/>
</svg>
