<svg width="70" height="70" viewBox="0 0 70 70" fill="none" xmlns="http://www.w3.org/2000/svg">
<path d="M48.2454 27.717L21.7549 13" stroke="white" stroke-width="3" stroke-linecap="round" stroke-linejoin="round"/>
<path d="M61 46.6553V23.4958C60.999 22.4805 61 20.3585 61 20.3585C61 20.3585 58.9886 18.9952 58.1111 18.4876L37.8889 6.90783C37.0106 6.39966 35 5.151 35 5.151C35 5.151 32.9894 6.39966 32.1111 6.90783L11.8889 18.4876C11.0114 18.9952 9 20.3585 9 20.3585C9 20.3585 9.00104 22.4805 9 23.4958V46.6553C9.00104 47.6706 9 49.7925 9 49.7925C9 49.7925 11.0114 51.1558 11.8889 51.6635L32.1111 63.2432C32.9894 63.7514 35 65.0001 35 65.0001C35 65.0001 37.0106 63.7514 37.8889 63.2432L58.1111 51.6635C58.9886 51.1558 61 49.7925 61 49.7925C61 49.7925 60.999 47.6706 61 46.6553Z" stroke="white" stroke-width="3" stroke-linecap="round" stroke-linejoin="round"/>
<path d="M9.98145 20.8491L35.0003 35.5661L60.0192 20.8491" stroke="white" stroke-width="3" stroke-linecap="round" stroke-linejoin="round"/>
<path d="M34.5098 64.0189V35.566" stroke="white" stroke-width="3" stroke-linecap="round" stroke-linejoin="round"/>
</svg>
